<svg viewBox="0 0 1066 1024" xmlns="http://www.w3.org/2000/svg">
  <path
    d="M446.848 147.2h170.666667v85.333333h-170.666667a256 256 0 0 0-256 256c0 154.026667 105.045333 254.549333 341.333333 361.813334v-105.813334h85.333334a256 256 0 0 0 256-256h85.333333a341.333333 341.333333 0 0 1-341.333333 341.333334v149.333333c-213.333333-85.333333-512-213.333333-512-490.666667a341.333333 341.333333 0 0 1 341.333333-341.333333z" />
  <g transform="translate(680, 20)">
    <rect x="0" y="80" width="90" height="245" rx="45" />
    <rect x="155" y="0" width="90" height="405" rx="45" />
    <rect x="310" y="120" width="90" height="205" rx="45" />
  </g>
</svg>