
      <svg
        viewBox="0 0 1024 1024"
        xmlns="http://www.w3.org/2000/svg"
        p-id="1679"
      >
        <path
          d="M512.853333 637.312c-12.458667 0-25.173333 1.92-35.925333 6.101333a55.210667 55.210667 0 0 0-17.408 10.453334 39.04 39.04 0 0 0-13.098667 28.8c0 13.866667 7.381333 23.552 13.098667 28.757333 5.674667 5.248 12.16 8.448 17.408 10.496 10.794667 4.181333 23.466667 6.058667 35.882667 6.058667 12.458667 0 25.173333-1.877333 35.925333-6.058667 5.248-2.048 11.733333-5.248 17.408-10.496a39.04 39.04 0 0 0 13.098667-28.757333 39.04 39.04 0 0 0-13.098667-28.8 55.210667 55.210667 0 0 0-17.408-10.453334 101.376 101.376 0 0 0-35.882667-6.101333z"
          p-id="1680"
        ></path>
        <path
          d="M598.869333 539.562667c7.04-11.349333 20.949333-24.917333 41.813334-24.917334s34.773333 13.568 41.813333 24.917334c7.338667 11.861333 10.837333 26.24 10.837333 40.448 0 14.165333-3.498667 28.586667-10.837333 40.405333-7.04 11.349333-20.949333 24.917333-41.813333 24.917333s-34.773333-13.568-41.813334-24.917333a77.226667 77.226667 0 0 1-10.837333-40.405333c0-14.208 3.498667-28.586667 10.837333-40.448zM384.682667 514.688c-20.864 0-34.773333 13.525333-41.813334 24.874667a77.269333 77.269333 0 0 0-10.837333 40.448c0 14.165333 3.498667 28.586667 10.837333 40.405333 7.04 11.349333 20.949333 24.917333 41.813334 24.917333 20.906667 0 34.773333-13.568 41.813333-24.917333 7.338667-11.861333 10.837333-26.24 10.837333-40.405333 0-14.208-3.498667-28.586667-10.837333-40.448-7.04-11.349333-20.906667-24.917333-41.813333-24.917334z"
          p-id="1681"
        ></path>
        <path
          d="M260.053333 181.333333c-26.197333 0-56.32 7.637333-80.469333 28.416-25.045333 21.546667-40.106667 54.272-40.106667 96.896v80.128c0.085333 12.544 2.218667 37.674667 9.386667 58.624 2.346667 6.869333 6.058667 15.957333 12.330667 24.192a210.090667 210.090667 0 0 0-20.48 72.704c-2.176 19.925333-2.218667 40.874667-1.877334 60.202667-28.16 9.813333-57.386667 21.930667-70.826666 30.634667a32 32 0 0 0 34.688 53.76c4.949333-3.2 19.626667-9.941333 38.912-17.28 2.901333 20.437333 8.874667 39.04 17.194666 55.978666a910.037333 910.037333 0 0 0-22.016 14.208 32 32 0 0 0 34.730667 53.76c1.706667-1.152 3.626667-2.346667 5.546667-3.669333 5.632-3.626667 12.074667-7.850667 19.072-12.117333 25.173333 25.685333 56.405333 45.525333 88.832 60.458666 75.946667 34.986667 165.973333 47.104 227.029333 47.104 61.056 0 151.04-12.16 226.986667-47.104 32.469333-14.933333 63.744-34.773333 88.874666-60.458666 6.997333 4.266667 13.44 8.490667 19.029334 12.117333l5.589333 3.669333a32 32 0 0 0 34.730667-53.76 911.232 911.232 0 0 0-22.016-14.165333c8.32-16.981333 14.250667-35.584 17.194666-56.021333 19.285333 7.338667 33.962667 14.08 38.912 17.28a32 32 0 0 0 34.730667-53.76c-13.44-8.704-42.666667-20.821333-70.869333-30.634667a482.56 482.56 0 0 0-1.877334-60.245333 210.090667 210.090667 0 0 0-20.48-72.661334c6.272-8.234667 9.984-17.322667 12.373334-24.192a204.373333 204.373333 0 0 0 9.301333-58.624V306.688c0-42.666667-15.018667-75.349333-40.064-96.938667-24.149333-20.778667-54.272-28.416-80.469333-28.416-17.408 0-35.413333 6.698667-49.962667 13.226667a546.986667 546.986667 0 0 0-45.994667 24.362667l-9.088 5.248-0.085333 0.042666c-11.264 6.528-21.248 12.373333-30.165333 16.938667-5.546667 2.816-9.813333 4.778667-13.056 5.973333a29.696 29.696 0 0 1-2.645334 0.853334 200.490667 200.490667 0 0 1-27.648-2.218667l-6.912-0.853333A507.136 507.136 0 0 0 512 241.322667a507.136 507.136 0 0 0-73.301333 4.437333 200.533333 200.533333 0 0 1-27.648 2.218667 30.037333 30.037333 0 0 1-2.645334-0.853334 124.586667 124.586667 0 0 1-13.056-5.973333 741.12 741.12 0 0 1-30.165333-16.938667l-9.173333-5.290666c-14.506667-8.32-30.549333-17.365333-45.994667-24.32-14.506667-6.570667-32.554667-13.269333-49.962667-13.269334z m2.858667 570.197334c14.250667 10.752 30.677333 20.224 48.810667 28.586666 65.28 30.037333 145.578667 41.216 200.277333 41.216s134.954667-11.178667 200.277333-41.216c18.133333-8.362667 34.56-17.834667 48.810667-28.586666a32 32 0 0 1 5.546667-63.530667c13.952 0 28.202667 3.498667 41.472 8.32 6.741333-14.165333 10.922667-29.653333 12.032-46.634667a127.957333 127.957333 0 0 0-25.984-4.352 32 32 0 1 1 0-64c8.32 0 17.706667 1.28 27.178666 3.072 0-11.776-0.384-23.338667-1.664-35.2-2.986667-27.52-10.794667-51.968-29.184-73.685333a144.64 144.64 0 0 0-25.045333-23.04 32 32 0 1 1 37.888-51.626667c5.077333 3.754667 9.898667 7.594667 14.421333 11.52 1.877333-9.728 2.688-19.925333 2.730667-25.770666V306.688c0-26.709333-8.789333-40.661333-17.834667-48.426667-9.898667-8.533333-24.021333-12.928-38.698666-12.928-2.986667 0-10.496 1.664-23.637334 7.594667-12.245333 5.546667-25.941333 13.141333-40.405333 21.461333l-8.277333 4.778667c-11.392 6.613333-23.210667 13.482667-33.706667 18.858667-6.570667 3.413333-13.44 6.656-20.053333 9.130666a69.376 69.376 0 0 1-23.722667 4.864c-15.872 0-26.965333-1.450667-37.674667-2.858666A443.904 443.904 0 0 0 512 305.322667a443.904 443.904 0 0 0-64.469333 3.84c-10.666667 1.408-21.802667 2.816-37.674667 2.816-9.088 0-17.578667-2.56-23.68-4.821334a186.112 186.112 0 0 1-20.138667-9.130666c-10.453333-5.376-22.272-12.245333-33.706666-18.858667l-8.234667-4.778667c-14.506667-8.32-28.16-15.957333-40.405333-21.461333-13.141333-5.973333-20.650667-7.594667-23.637334-7.594667-14.72 0-28.8 4.394667-38.698666 12.928-9.045333 7.765333-17.834667 21.76-17.834667 48.426667V386.56c0 5.845333 0.853333 16.042667 2.730667 25.770667 4.522667-3.925333 9.344-7.765333 14.421333-11.52a32 32 0 0 1 37.888 51.626666c-10.24 7.509333-18.474667 15.232-25.045333 23.04-18.346667 21.76-26.197333 46.165333-29.184 73.685334-1.28 11.861333-1.706667 23.466667-1.706667 35.2 9.514667-1.834667 18.901333-3.072 27.221333-3.072a32 32 0 0 1 0 64c-4.522667 0-13.312 1.28-26.026666 4.352 1.152 16.981333 5.333333 32.469333 12.074666 46.634666a122.88 122.88 0 0 1 41.472-8.32 32 32 0 0 1 5.546667 63.530667z"
          p-id="1682"
        ></path>
      </svg>

